ModelForces
version=1
nRows=4
nColumns=155
inDegrees=no

This file contains the forces exerted on a model during a simulation.

A force is a generalized force, meaning that it can be either a force (N) or a torque (Nm).

Units are S.I. units (second, meters, Newtons, ...)
Angles are in degrees.

endheader
time	glut_med1_r	glut_med2_r	glut_med3_r	glut_min1_r	glut_min2_r	glut_min3_r	semimem_r	semiten_r	bifemlh_r	bifemsh_r	sar_r	add_long_r	add_brev_r	add_mag1_r	add_mag2_r	add_mag3_r	tfl_r	pect_r	grac_r	glut_max1_r	glut_max2_r	glut_max3_r	iliacus_r	psoas_r	quad_fem_r	gem_r	peri_r	rect_fem_r	vas_med_r	vas_int_r	vas_lat_r	med_gas_r	lat_gas_r	soleus_r	tib_post_r	flex_dig_r	flex_hal_r	tib_ant_r	per_brev_r	per_long_r	per_tert_r	ext_dig_r	ext_hal_r	glut_med1_l	glut_med2_l	glut_med3_l	glut_min1_l	glut_min2_l	glut_min3_l	semimem_l	semiten_l	bifemlh_l	bifemsh_l	sar_l	add_long_l	add_brev_l	add_mag1_l	add_mag2_l	add_mag3_l	tfl_l	pect_l	grac_l	glut_max1_l	glut_max2_l	glut_max3_l	iliacus_l	psoas_l	quad_fem_l	gem_l	peri_l	rect_fem_l	vas_med_l	vas_int_l	vas_lat_l	med_gas_l	lat_gas_l	soleus_l	tib_post_l	flex_dig_l	flex_hal_l	tib_ant_l	per_brev_l	per_long_l	per_tert_l	ext_dig_l	ext_hal_l	ercspn_r	ercspn_l	intobl_r	intobl_l	extobl_r	extobl_l	femur_lat_meniscii_r.femur_lat_r.force.X	femur_lat_meniscii_r.femur_lat_r.force.Y	femur_lat_meniscii_r.femur_lat_r.force.Z	femur_lat_meniscii_r.femur_lat_r.torque.X	femur_lat_meniscii_r.femur_lat_r.torque.Y	femur_lat_meniscii_r.femur_lat_r.torque.Z	femur_lat_meniscii_r.meniscus_lat_r.force.X	femur_lat_meniscii_r.meniscus_lat_r.force.Y	femur_lat_meniscii_r.meniscus_lat_r.force.Z	femur_lat_meniscii_r.meniscus_lat_r.torque.X	femur_lat_meniscii_r.meniscus_lat_r.torque.Y	femur_lat_meniscii_r.meniscus_lat_r.torque.Z	femur_med_meniscii_r.femur_med_r.force.X	femur_med_meniscii_r.femur_med_r.force.Y	femur_med_meniscii_r.femur_med_r.force.Z	femur_med_meniscii_r.femur_med_r.torque.X	femur_med_meniscii_r.femur_med_r.torque.Y	femur_med_meniscii_r.femur_med_r.torque.Z	femur_med_meniscii_r.meniscus_med_r.force.X	femur_med_meniscii_r.meniscus_med_r.force.Y	femur_med_meniscii_r.meniscus_med_r.force.Z	femur_med_meniscii_r.meniscus_med_r.torque.X	femur_med_meniscii_r.meniscus_med_r.torque.Y	femur_med_meniscii_r.meniscus_med_r.torque.Z	femur_med_tibia_r.tibia_upper_r.force.X	femur_med_tibia_r.tibia_upper_r.force.Y	femur_med_tibia_r.tibia_upper_r.force.Z	femur_med_tibia_r.tibia_upper_r.torque.X	femur_med_tibia_r.tibia_upper_r.torque.Y	femur_med_tibia_r.tibia_upper_r.torque.Z	femur_med_tibia_r.femur_med_r.force.X	femur_med_tibia_r.femur_med_r.force.Y	femur_med_tibia_r.femur_med_r.force.Z	femur_med_tibia_r.femur_med_r.torque.X	femur_med_tibia_r.femur_med_r.torque.Y	femur_med_tibia_r.femur_med_r.torque.Z	femur_lat_tibia_r.tibia_upper_r.force.X	femur_lat_tibia_r.tibia_upper_r.force.Y	femur_lat_tibia_r.tibia_upper_r.force.Z	femur_lat_tibia_r.tibia_upper_r.torque.X	femur_lat_tibia_r.tibia_upper_r.torque.Y	femur_lat_tibia_r.tibia_upper_r.torque.Z	femur_lat_tibia_r.femur_lat_r.force.X	femur_lat_tibia_r.femur_lat_r.force.Y	femur_lat_tibia_r.femur_lat_r.force.Z	femur_lat_tibia_r.femur_lat_r.torque.X	femur_lat_tibia_r.femur_lat_r.torque.Y	femur_lat_tibia_r.femur_lat_r.torque.Z	aACL_R	pACL_R	aPCL_R	pPCL_R	aMCL_R	mMCL_R	pMCL_R	aLCL_R	mLCL_R	pLCL_R	aPCL_L	pPCL_L	aMCL_L	aLCL_L
      0.10396654	      2.90565798	     11.66391727	     12.57539417	      5.31762283	      6.08851826	      6.72716377	    115.94493443	    169.54496985	    250.89837939	    383.50695024	    125.12617294	     11.65503307	      8.22905713	      0.00000000	      4.91576844	      8.76729876	      4.97514308	      0.00000000	     99.51703081	      7.53919564	     11.48823557	      8.67323429	     33.72125884	     25.56669263	      7.11280610	      4.67368088	      3.20517617	     39.53748590	      0.00000000	      0.00000000	      0.00000000	     17.46111990	      0.42726168	      0.00000000	      3.26380311	      4.32064021	      1.24178579	     31.45039981	      1.44398270	      3.21405810	      8.41333119	     17.55387943	      5.54102700	      2.90565798	     11.66391727	     12.57539417	      5.31762283	      6.08851826	      6.72716377	      0.00000000	      8.80703247	     14.93042367	     14.65962045	      3.02962645	     11.65503307	      8.22905713	      0.00000000	      4.91576844	      8.76729876	      7.01460968	      0.00000000	      3.14476949	      7.53919564	     11.48823557	      8.67323429	     33.72125884	     25.56669263	      7.11280610	      4.67368088	      3.20517617	     24.11261591	      0.00000000	      0.00000000	      0.00000000	     14.56693533	      7.80278395	     57.72251742	     58.18700499	      8.34849329	      7.77191679	     16.91748707	      9.64298438	     21.97762235	      3.94478983	     11.05896384	      3.73226387	     50.08801955	     50.08801955	     19.05809025	     19.05809025	     35.94669668	     35.94669668	     19.10166217	    184.91422073	     26.55745432	    -15.37491425	      0.53864245	      7.36472974	    -19.10166217	   -184.91422073	    -26.55745432	      5.64140981	     -0.85125002	      1.81279518	    -16.98462683	     25.80000646	      0.24413536	      0.52348010	      0.40568371	     -6.97208490	     16.98462683	    -25.80000646	     -0.24413536	     -0.55745630	     -0.36903843	      0.73570205	    -49.12901684	   -473.35517144	    120.52818099	    -11.54261910	      1.70452452	      2.01401123	     49.12901684	    473.35517144	   -120.52818099	     58.73986265	     -0.59857358	     21.56770836	    -59.19790840	   -324.23298900	    -78.12990712	     10.97289125	     -2.30023959	      1.21971367	     59.19790840	    324.23298900	     78.12990712	    -40.11420021	      1.37365889	     24.70547484	     22.57471223	     -6.21103466	      0.00000000	      0.00000000	      0.00000000	      0.00000000	    -33.23260455	      0.00000000	      0.00000000	      0.00000000	      0.00000000	      0.00000000	      0.00000001	      0.00000000
      0.10485575	      4.66573579	     11.59312367	     12.50011012	      5.28627648	      6.05393686	      6.69691610	    115.28780106	    168.50903170	    249.19637318	    382.02923038	    125.05586049	     11.58302591	      8.18098047	      0.00000000	      4.90471373	      8.71283444	      4.98618282	      0.00000000	     99.42473510	      7.49386185	     11.41758318	      8.61919255	     33.58766762	     25.41464509	      7.11138283	      4.65189192	      3.42573663	     39.36983912	      0.00000000	      0.00000000	      0.00000000	     18.63056870	      0.34591961	      0.00000000	      2.62808313	      3.97138162	      0.99411411	     30.62173378	      1.57188911	      3.16213217	      9.40470892	     17.47771483	      5.51258985	      4.66573579	     11.59312367	     12.50011012	      5.28627648	      6.05393686	      6.69691610	      0.00000000	      8.75064612	     14.93218393	     14.57134186	      3.01184709	     11.58302591	      8.18098047	      0.00000000	      4.90471373	      8.71283444	      6.98278059	      0.00000000	      3.12601066	      7.49386185	     11.41758318	      8.61919255	     33.58766762	     25.41464509	      7.11138283	      4.65189192	      3.42573663	     23.98289880	      0.00000000	      0.00000000	      0.00000000	     14.96120117	      7.94827864	     57.82852637	     58.09765316	      8.24793735	      7.66509261	     16.90273547	      9.60806110	     21.94347361	      3.92169355	     11.18221918	      3.77889764	     49.79215311	     49.79215311	     18.93809564	     18.93809564	     35.83593326	     35.83593326	     18.24022141	    183.85962806	     27.85338108	    -15.89417975	      0.51437663	      6.98641512	    -18.24022141	   -183.85962806	    -27.85338108	      5.65596864	     -0.84004180	      1.86794675	    -17.53051523	     27.23411688	      0.55483955	      0.42591266	      0.41861334	     -7.19409278	     17.53051523	    -27.23411688	     -0.55483955	     -0.57644913	     -0.38455656	      0.76612945	    -51.09738508	   -478.65143213	    120.81173311	    -11.64029719	      1.74498293	      2.02280416	     51.09738508	    478.65143213	   -120.81173311	     58.93914832	     -0.62747440	     22.40979516	    -58.83007408	   -310.49270409	    -75.32949048	     10.50967520	     -2.26994337	      1.14637733	     58.83007408	    310.49270409	     75.32949048	    -38.62207765	      1.36765789	     24.52760193	     21.55144292	     -7.20247970	      0.00000000	      0.00000000	      0.00000000	      0.00000000	    -32.57226472	      0.00000000	      0.00000000	      0.00000000	      0.00000000	      0.00000000	      0.00000001	      0.00000000
      0.10574496	      6.03588596	     11.52312595	     12.42547949	      5.25531053	      6.01977957	      6.66617892	    114.60052302	    167.59595741	    247.33660121	    380.41696319	    125.01490272	     11.51190282	      8.13348529	      0.00000000	      4.89206076	      8.65886527	      4.99741544	      0.00000000	     99.27767447	      7.44895605	     11.34777636	      8.56580977	     33.45574987	     25.26448999	      7.10326457	      4.63035136	      3.63089523	     39.18817407	      0.00000000	      0.00000000	      0.00000000	     19.94995766	      0.28622488	      0.00000000	      1.97009210	      3.61810353	      0.75649236	     31.33704969	      1.72297730	      3.14294174	      6.30541196	     17.40256454	      5.48657511	      6.03588596	     11.52312595	     12.42547949	      5.25531053	      6.01977957	      6.66617892	      0.00000000	      8.69495159	     14.93065322	     14.48414242	      2.99428312	     11.51190282	      8.13348529	      0.00000000	      4.89206076	      8.65886527	      6.95118132	      0.00000000	      3.10748035	      7.44895605	     11.34777636	      8.56580977	     33.45574987	     25.26448999	      7.10326457	      4.63035136	      3.63089523	     23.85325542	      0.00000000	      0.00000000	      0.00000000	     15.33612620	      8.08673664	     57.91792789	     58.00652710	      8.14921555	      7.55997979	     16.88493139	      9.57248305	     21.90799948	      3.89886207	     11.29981437	      3.82200827	     49.49987937	     49.49987937	     18.81956966	     18.81956966	     35.72656903	     35.72656903	     16.93724637	    183.10885358	     28.43133529	    -16.11674915	      0.47882961	      6.41689679	    -16.93724637	   -183.10885358	    -28.43133529	      5.64912783	     -0.80955083	      1.94889614	    -17.67131273	     28.52558978	      0.78864639	      0.35978865	      0.42345448	     -7.24577339	     17.67131273	    -28.52558978	     -0.78864639	     -0.59790229	     -0.39220571	      0.78004887	    -53.73425206	   -481.63827759	    120.80785350	    -11.69199573	      1.80055409	      1.98773642	     53.73425206	    481.63827759	   -120.80785350	     58.97693220	     -0.67537691	     23.53005076	    -56.60789767	   -298.59223663	    -73.02587341	     10.11321183	     -2.20302693	      1.16759186	     56.60789767	    298.59223663	     73.02587341	    -37.38193012	      1.32436964	     23.56316416	     20.46887788	     -8.20270877	      0.00000000	      0.00000000	      0.00000000	      0.00000000	    -32.24559403	      0.00000000	      0.00000000	      0.00000000	      0.00000000	      0.00000000	      0.00000001	      0.00000000
      0.10663416	      7.14783203	     11.45392341	     12.35152527	      5.22472012	      5.98604094	      6.63501511	    113.88123059	    166.76823922	    245.26132127	    378.53051406	    124.97866448	     11.44165245	      8.08656420	      0.00000000	      4.87797156	      8.60539655	      5.00799103	      0.00000000	     99.09557077	      7.40448871	     11.27880725	      8.51307817	     33.32548353	     25.11620263	      7.08978387	      4.60905797	      3.82211997	     39.00291353	      0.00000000	      0.00000000	      0.00000000	     21.41175788	      0.24413759	      0.00000000	      1.29089975	      3.26242450	      0.53049365	     29.77715020	      1.89681409	      3.15461674	      8.99703460	     17.33054082	      5.46046074	      7.14783203	     11.45392341	     12.35152527	      5.22472012	      5.98604094	      6.63501511	      0.00000000	      8.63993999	     14.92679154	     14.39800829	      2.97693181	     11.44165245	      8.08656420	      0.00000000	      4.87797156	      8.60539655	      6.91981737	      0.00000000	      3.08917565	      7.40448871	     11.27880725	      8.51307817	     33.32548353	     25.11620263	      7.08978387	      4.60905797	      3.82211997	     23.72375904	      0.00000000	      0.00000000	      0.00000000	     15.69273229	      8.21847524	     57.99147611	     57.91369039	      8.05243915	      7.45677618	     16.86416985	      9.53628999	     21.87122374	      3.87629386	     11.41085263	      3.86116590	     49.21115249	     49.21115249	     18.70249396	     18.70249396	     35.61858525	     35.61858525	     15.25861798	    182.75996871	     28.93405296	    -16.32011044	      0.43086093	      5.68799108	    -15.25861798	   -182.75996871	    -28.93405296	      5.65280173	     -0.76532002	      2.05009257	    -18.15561857	     29.41731743	      1.15461601	      0.22909557	      0.43229781	     -7.45015867	     18.15561857	    -29.41731743	     -1.15461601	     -0.60630550	     -0.40453500	      0.81142600	    -56.35356493	   -484.01077226	    120.61128216	    -11.73123777	      1.85221886	      1.95506151	     56.35356493	    484.01077226	   -120.61128216	     58.92720036	     -0.72083672	     24.63666216	    -56.24263244	   -286.92050871	    -70.35885108	      9.71071529	     -2.17550580	      1.11148217	     56.24263244	    286.92050871	     70.35885108	    -35.99542253	      1.32027429	     23.38727756	     19.20311920	     -9.32611932	      0.00000000	      0.00000000	      0.00000000	      0.00000000	    -32.09839562	      0.00000000	      0.00000000	      0.00000000	      0.00000000	      0.00000000	      0.00000001	      0.00000000
